# xmcd
#
# Track frame offsets:
#	150
#	14705
#	27173
#	47757
#	60413
#	72077
#	85486
#	96704
#	108215
#	122766
#	135363
#	151213
#	163256
#	175582
#	186183
#
# Disc length: 2649 seconds
#
# Revision: 2
# Processed by: cddbd v1.5.1PL0 Copyright (c) Steve Scherf et al.
# Submitted via: dBpowerAMP V4.0
#
DISCID=c60a570f
DTITLE=living the blues - Living the blues
DYEAR=1957
DGENRE=Blues
TTITLE0=Night time is right time
TTITLE1=Cell now love
TTITLE2=Rock me
TTITLE3=Ray to the highway
TTITLE4=The walk
TTITLE5=Gangster of love
TTITLE6=I'll take care of you
TTITLE7=Blues early early
TTITLE8=Honest I do
TTITLE9=What'd I say
TTITLE10=Empty arms
TTITLE11=I'm sorry
TTITLE12=Ran Bruck Schush
TTITLE13=Pretty girls everywhere
TTITLE14=United
EXTD=living the blues 1957/59
EXTT0=
EXTT1=
EXTT2=
EXTT3=
EXTT4=
EXTT5=
EXTT6=
EXTT7=
EXTT8=
EXTT9=
EXTT10=
EXTT11=
EXTT12=
EXTT13=
EXTT14=
PLAYORDER=
